PathFileType	4	(X/Y/Z)	T1_P2_Vision_NoMovement_0_0-733.trc
DataRate	CameraRate	NumFrames	NumMarkers	Units	OrigDataRate	OrigDataStartFrame	OrigNumFrames
60	60	4	27	m	60	641	733
Frame#	Time	RHip			RKnee			RAnkle			RBigToe			RSmallToe			RHeel			LHip			LKnee			LAnkle			LBigToe			LSmallToe			LHeel			Neck			Head			Nose			RShoulder			RElbow			RWrist			RThumb			RIndex			RPinky			LShoulder			LElbow			LWrist			LThumb			LIndex			LPinky		
		X1	Y1	Z1	X2	Y2	Z2	X3	Y3	Z3	X4	Y4	Z4	X5	Y5	Z5	X6	Y6	Z6	X7	Y7	Z7	X8	Y8	Z8	X9	Y9	Z9	X10	Y10	Z10	X11	Y11	Z11	X12	Y12	Z12	X13	Y13	Z13	X14	Y14	Z14	X15	Y15	Z15	X16	Y16	Z16	X17	Y17	Z17	X18	Y18	Z18	X19	Y19	Z19	X20	Y20	Z20	X21	Y21	Z21	X22	Y22	Z22	X23	Y23	Z23	X24	Y24	Z24	X25	Y25	Z25	X26	Y26	Z26	X27	Y27	Z27
642	10.7	451.65972344115846	3719.6237858198774	636.6433474576583	869.5540202147077	3787.9810167436663	662.7120453594899	1213.4804206231381	3732.6233806054556	667.3581794902334	1290.3717694830978	3640.8401664622224	654.1350437986288	1287.093690689684	3689.013597047224	605.7314183315957	1287.1889065390014	3813.3343452869335	745.6023911432014	460.70016867971185	3618.5607689088424	838.3478665112668	850.8327181863358	3645.044187325008	850.6147716957855	1235.0465669436526	3684.859908579754	860.9255521921987	1304.9549604813328	3540.8359760140834	799.3097619560428	1283.2125912987367	3537.5058823297486	844.3565258740849	1258.3113693024707	3706.05522828228	857.1731688633752	-107.07896693311113	3625.8130058126508	744.7145421421952	-374.689028928703	3548.687518113041	724.9739119914226	-213.18928820975597	3437.6360724586148	673.1168874747025	-43.18212454538764	3655.42395541441	574.299106509725	198.95818077427543	3721.7421074610606	533.05440369425	364.89905488450205	3535.078415321619	602.9771246579421	435.46344699442034	3484.799355431219	677.244040984701	463.11310484499046	3501.8074083919932	696.2499233774204	479.91794225380437	3440.1800480743314	619.1982767434637	-30.352001237501653	3563.293706140991	892.6188526767606	227.44141929012298	3483.94348273346	889.2556132514339	357.52968996567614	3465.031904500868	699.9076774298422	428.0917377325164	3502.5649177528135	610.0664430138372	455.0262658508981	3501.1942575941953	609.2103521293066	461.967030167094	3430.2132872499005	620.1250190607866
643	10.716666666666669	452.4058831443835	3718.4283560203603	636.5254859249899	873.7439506416849	3793.6419624092246	663.8169035055089	1213.797686262752	3734.3991523904765	667.6957315351277	1292.3615473610412	3646.386445049091	655.5547655855634	1286.9282259015292	3689.74142670913	606.0749568956738	1288.1282792638715	3812.660599077271	744.7999255885417	462.3737420320253	3619.7034596803474	839.8482808506438	850.8287611861309	3644.992135885315	850.0221990004688	1235.4234832989086	3687.20345405747	862.998173906099	1306.5819764168407	3543.4983902276967	800.6359497029961	1283.7899659111204	3537.781579319557	844.5220675304668	1259.0418205054193	3706.599919226948	857.3545162659738	-106.90802304988995	3625.69422722518	744.6299379086316	-373.0894168331993	3547.3847355920952	724.1483039186749	-212.60939762163113	3438.329650365021	672.6118658408823	-43.19143099203747	3655.4768404082292	574.3346607556825	198.59137542707015	3722.3624359959567	532.7565498256071	364.9036770462687	3535.0880828496156	602.9411845831601	435.70071963981536	3490.4888206566875	680.5391719631873	462.8726165349466	3502.3531868878867	696.047132363997	479.5515186946923	3439.9246137530454	619.1556244125888	-30.239919612022042	3563.6531311784347	892.7064442859196	228.87628306520895	3484.8047782102335	889.8989651836323	357.52510097440387	3465.0070504803716	699.8815993557043	426.86659053597475	3504.099690341279	610.7656802545275	455.2256951922293	3501.560761871232	609.2629458823035	461.7199991203321	3430.200136313656	620.0540570893576
644	10.733333333333333	453.2001185643449	3717.3267976766156	636.1612613274357	876.3206035394749	3797.811923442682	663.6741840231421	1215.6619921329104	3738.2651093967916	669.0529056971591	1294.419560727304	3652.084497754362	657.2946615277289	1286.5744304823031	3690.6813045079507	606.5776361512209	1288.5288516956753	3809.581181647052	743.0384194793126	463.19342599604215	3620.8811648525384	841.0993840510608	850.9359227791299	3644.9484282328717	850.5145926577796	1236.0809764792718	3689.307333915208	864.96998486391	1306.5185846714812	3542.6631624784886	800.6968475190555	1284.6817656351361	3537.8891036828527	845.5255769389455	1260.1329985984498	3707.4408290796973	857.6322058680385	-106.52773227395856	3625.348163347836	744.4333812872068	-371.8575658568716	3546.3606264470995	723.6105521653253	-212.31821585433397	3436.4074655893037	671.9627378943578	-43.31849707746069	3655.593029858962	574.3763938337822	197.87915483480805	3723.8314562478736	532.0654779501584	364.7744395495422	3535.056744344697	602.8709298797285	435.43747292554747	3495.807959358269	684.0883517984558	462.097740610237	3502.7276945035087	696.011166892596	479.58242601383415	3439.8695862816935	619.0872446582072	-29.787994397953	3562.9436748075964	892.3618160993051	229.30123675262715	3483.859856512089	888.2476210653585	357.48858325694806	3465.0058438046735	699.8480037507121	425.86808927728765	3505.2966881983693	611.167061445225	455.82400824568185	3501.988458382999	609.2983421347687	461.37087002168346	3430.1233289383754	619.932201754252
645	10.75	453.8843440391747	3716.111774517118	636.2572163090506	876.2606048184366	3798.840036110743	662.5087684038587	1217.5779233574929	3741.157444590288	670.1609700013396	1295.5557657988256	3655.177398861604	658.5100538693988	1286.2867153282505	3690.936564717282	606.7714533982729	1289.032297864857	3807.8145376215516	742.0512395812783	462.9974998571847	3619.821980079601	840.1292782485948	851.5563880012866	3646.2862451033448	852.876008192033	1236.7499480105291	3690.665251549842	866.3764854923002	1306.6533361681327	3542.904277993644	801.6300396799365	1285.2383264299688	3537.6912008172017	847.0859240656682	1260.6877586699763	3707.934795471894	857.8095378378036	-105.98441084720935	3624.840928052197	744.1590030465168	-371.3588334753122	3545.94061238526	723.4258735311182	-212.56909648904318	3433.171982263218	671.1487342717483	-43.40017302310471	3655.6700576934822	574.3940848403643	197.1673238282636	3725.4987664743035	531.0770772769357	364.66537920186363	3535.0278970778927	602.8096515358694	434.92893348460973	3501.574508744693	688.6373221630197	460.67521042341804	3503.106805831403	695.6758621283661	480.13921666336694	3440.1485950399165	619.061679764342	-29.080961688978682	3561.8877211116223	891.8905114166367	228.74936036023698	3480.567052972666	884.3070983195553	357.40042829296607	3465.0337980526588	699.8294683931908	425.40650504681525	3506.1144903607883	611.5879043103303	455.9841919319555	3502.6132796114152	609.5626216036243	460.7390420771061	3429.9362453549484	619.7308967247058
